<svg width="23" height="19" viewBox="0 0 23 19" fill="none" xmlns="http://www.w3.org/2000/svg">
<path fill-rule="evenodd" clip-rule="evenodd" d="M20.3939 4.63698C20.4023 4.84182 20.405 5.04659 20.405 5.25144C20.405 11.462 15.8205 18.6318 7.43682 18.6318C4.86151 18.6318 2.46685 17.8496 0.449219 16.5181C0.805871 16.5554 1.16808 16.5834 1.53585 16.5834C3.67113 16.5834 5.63781 15.829 7.19782 14.5627C5.20335 14.5347 3.51922 13.166 2.93838 11.3037C3.21722 11.3596 3.50437 11.3876 3.79803 11.3876C4.21212 11.3876 4.61416 11.3318 4.99953 11.2201C2.91242 10.7918 1.34039 8.89232 1.34039 6.61107C1.34039 6.58313 1.34039 6.57377 1.34039 6.55514C1.9555 6.89966 2.65953 7.11371 3.40711 7.14164C2.18245 6.29432 1.37743 4.85112 1.37743 3.22165C1.37743 2.36502 1.60161 1.5549 1.99624 0.856561C4.24361 3.7058 7.60358 5.57738 11.3915 5.77292C11.3137 5.4284 11.2738 5.06536 11.2738 4.70222C11.2738 2.10438 13.3146 0 15.8325 0C17.1433 0 18.3272 0.568067 19.1581 1.48057C20.1985 1.27572 21.173 0.884676 22.0549 0.344625C21.7131 1.44335 20.9914 2.36497 20.0484 2.94227C20.9711 2.83053 21.8511 2.57932 22.6673 2.20687C22.0549 3.14731 21.2842 3.97588 20.3939 4.63698Z" fill="white"/>
</svg>
