<svg width="286" height="314" viewBox="0 0 286 314" fill="none" xmlns="http://www.w3.org/2000/svg">
<path d="M182.461 154.971C183.876 154.891 185.085 154.291 186.087 153.17C187.089 152.048 187.55 150.78 187.471 149.364C187.391 147.949 186.801 146.917 185.699 146.269C184.598 145.621 183.516 145.326 182.455 145.386C181.393 145.446 180.351 145.859 179.329 146.627C178.307 147.394 177.836 148.486 177.916 149.901C177.995 151.317 178.596 152.526 179.717 153.528C180.838 154.53 181.753 155.011 182.461 154.971ZM181.327 134.799C182.743 134.719 183.962 134.296 184.984 133.529C186.005 132.761 186.477 131.67 186.397 130.254C186.318 128.838 185.717 127.63 184.596 126.628C183.475 125.626 182.383 125.154 181.321 125.214C180.26 125.274 179.228 125.864 178.226 126.985C177.224 128.107 176.762 129.375 176.842 130.791C176.921 132.206 177.512 133.238 178.613 133.886C179.715 134.535 180.62 134.839 181.327 134.799ZM180.254 115.689L180.194 114.627C181.61 114.547 182.828 114.124 183.85 113.357C184.872 112.589 185.343 111.498 185.264 110.082C185.184 108.666 184.584 107.458 183.463 106.456C182.341 105.454 181.25 104.982 180.188 105.042C179.126 105.102 178.095 105.692 177.092 106.814C176.09 107.935 175.629 109.203 175.709 110.619C175.788 112.034 176.389 113.243 177.51 114.245C178.631 115.247 179.546 115.728 180.254 115.689ZM143.178 157.178C144.594 157.098 145.803 156.498 146.805 155.377C147.807 154.255 148.268 152.987 148.188 151.571C148.109 150.156 147.518 149.124 146.417 148.476C145.316 147.828 144.057 147.543 142.641 147.623C141.226 147.702 140.007 148.126 138.985 148.893C137.963 149.661 137.492 150.752 137.572 152.168C137.651 153.583 138.252 154.792 139.373 155.794C140.494 156.796 141.763 157.257 143.178 157.178ZM142.045 137.006C143.461 136.926 144.679 136.503 145.701 135.735C146.723 134.968 147.194 133.877 147.115 132.461C147.035 131.045 146.435 129.837 145.314 128.834C144.192 127.832 142.924 127.371 141.508 127.451C140.093 127.53 138.884 128.131 137.882 129.252C136.88 130.373 136.418 131.642 136.498 133.057C136.577 134.473 137.168 135.505 138.269 136.153C139.371 136.801 140.629 137.085 142.045 137.006ZM140.971 117.896L140.912 116.834C142.327 116.754 143.546 116.331 144.568 115.563C145.59 114.796 146.061 113.704 145.982 112.289C145.902 110.873 145.302 109.665 144.18 108.663C143.059 107.66 141.79 107.199 140.375 107.279C138.959 107.358 137.751 107.959 136.748 109.08C135.746 110.201 135.285 111.47 135.365 112.885C135.444 114.301 136.045 115.51 137.166 116.512C138.287 117.514 139.556 117.975 140.971 117.896ZM151.29 206.779L149.62 177.052C149.54 175.636 148.94 174.427 147.819 173.425C146.697 172.423 145.429 171.962 144.013 172.041C142.598 172.121 141.389 172.721 140.387 173.843C139.385 174.964 138.924 176.233 139.003 177.648L140.673 207.375C140.753 208.791 141.353 210 142.474 211.002C143.596 212.004 144.864 212.465 146.28 212.385C147.695 212.306 148.904 211.706 149.906 210.584C150.908 209.463 151.37 208.194 151.29 206.779ZM103.896 159.385L102.834 159.444C104.25 159.365 105.459 158.764 106.461 157.643C107.463 156.522 107.924 155.253 107.844 153.838C107.765 152.422 107.174 151.39 106.073 150.742C104.972 150.094 103.89 149.8 102.828 149.859C101.767 149.919 100.725 150.333 99.7029 151.1C98.6809 151.867 98.2097 152.959 98.2893 154.375C98.3688 155.79 98.9692 156.999 100.091 158.001C101.212 159.003 102.48 159.464 103.896 159.385ZM102.763 139.213L101.701 139.272C103.117 139.193 104.335 138.769 105.357 138.002C106.379 137.235 106.85 136.143 106.771 134.727C106.691 133.312 106.091 132.103 104.97 131.101C103.848 130.099 102.757 129.628 101.695 129.687C100.633 129.747 99.6015 130.338 98.5994 131.459C97.5974 132.58 97.1361 133.849 97.2156 135.264C97.2952 136.68 97.8857 137.712 98.9871 138.36C100.089 139.008 101.347 139.292 102.763 139.213ZM101.689 120.102L100.568 119.1C101.983 119.021 103.202 118.597 104.224 117.83C105.246 117.063 105.717 115.971 105.638 114.555C105.558 113.14 104.958 111.931 103.836 110.929C102.715 109.927 101.623 109.456 100.562 109.515C99.5 109.575 98.4682 110.166 97.4661 111.287C96.4641 112.408 96.0029 113.677 96.0824 115.092C96.1619 116.508 96.7623 117.717 97.8837 118.719C99.005 119.721 100.273 120.182 101.689 120.102ZM99.7208 179.855L101.391 209.582C101.47 210.998 102.071 212.207 103.192 213.209C104.313 214.211 105.405 214.682 106.467 214.622C107.528 214.563 108.56 213.972 109.562 212.851C110.564 211.729 111.026 210.461 110.946 209.045L109.276 179.318C109.196 177.903 108.596 176.694 107.475 175.692C106.353 174.69 105.262 174.219 104.2 174.278C103.138 174.338 102.107 174.928 101.105 176.05C100.102 177.171 99.6412 178.439 99.7208 179.855ZM240.471 12.1923C224.152 12.3991 204.672 19.5287 182.031 33.5811C159.612 26.3203 136.844 25.4694 113.725 31.0283C90.6069 36.5872 70.6179 47.2956 53.7582 63.1532C52.4221 64.6484 51.9807 66.2707 52.434 68.0203C52.8873 69.7699 54.0186 70.9489 55.8278 71.5572C57.6371 72.1656 59.2097 71.7223 60.5458 70.2272C75.4014 56.6122 92.619 47.1246 112.198 41.7644C131.778 36.4043 151.282 36.0186 170.71 40.6073C159.744 47.6137 149.524 55.288 140.053 63.6304C138.717 65.1255 138.079 66.4039 138.138 67.4656C138.198 68.5273 138.611 69.569 139.379 70.591C140.146 71.6129 141.248 72.261 142.683 72.5354C144.119 72.8098 145.524 72.5533 146.9 71.766C158.416 61.8887 170.679 52.6795 183.689 44.1383C198.203 49.7132 211.253 57.6778 222.84 68.0322C234.427 78.3866 243.804 90.4627 250.969 104.261C238.793 127.665 224.769 149.754 208.895 170.526L204.004 83.4684C203.925 82.0528 203.334 81.0209 202.233 80.3728C201.131 79.7246 199.873 79.4403 198.457 79.5199L193.149 79.8181C191.535 76.3587 189.439 73.8138 186.862 72.1835C184.286 70.5532 181.405 69.8275 178.22 70.0064C175.035 70.1854 172.253 71.2292 169.875 73.1378C167.498 75.0465 165.7 77.81 164.483 81.4285L79.5487 86.2001C78.1331 86.2797 76.9144 86.7031 75.8925 87.4706C74.8706 88.238 74.3994 89.3295 74.4789 90.7451L76.6261 128.966C58.6292 149.857 43.2288 172.733 30.425 197.594C21.9156 172.511 21.2118 147.344 28.3135 122.095C31.1844 122.643 34.0355 122.838 36.8666 122.679C42.5687 123.069 47.6107 121.188 51.9927 117.037C56.3746 112.885 59.1044 107.762 60.1819 101.666C61.2595 95.5704 60.0567 89.9578 56.5734 84.8283C53.0901 79.6988 48.4577 76.2314 42.6761 74.4262C36.8945 72.6209 31.2222 72.7621 25.6593 74.8497C20.0964 76.9372 15.8715 80.7247 12.9847 86.2121C10.0979 91.6994 9.3543 97.4214 10.754 103.378C12.1537 109.335 15.0962 114.317 19.5815 118.325C14.7144 132.799 12.7282 147.999 13.6229 163.924C14.5176 179.849 18.2136 195.084 24.711 209.63C13.9908 233.663 9.06804 253.465 9.94284 269.037C5.89492 272.814 3.10552 276.876 1.57462 281.222C0.0437326 285.568 -0.0516984 290.189 1.28833 295.084C2.62836 299.978 5.16726 304.096 8.90502 307.436C12.6428 310.776 17.0188 312.838 22.0329 313.621C27.0471 314.405 31.6279 313.792 35.7752 311.784C39.9225 309.776 43.6464 306.549 46.9467 302.104C62.5181 301.229 81.6443 294.119 104.325 280.775C128.907 288.624 153.602 289.012 178.411 281.938C203.219 274.864 224.308 261.609 241.676 242.172C242.305 240.717 242.579 239.281 242.499 237.866C242.42 236.45 241.829 235.418 240.728 234.77C239.627 234.122 238.368 233.838 236.952 233.917C235.537 233.997 234.495 234.41 233.827 235.158C219.17 252.312 201.207 264.326 179.938 271.202C158.668 278.077 137.238 278.926 115.646 273.748C134.08 260.642 151.727 246.161 168.587 230.303L206.808 228.156C208.223 228.076 209.442 227.653 210.464 226.885C211.486 226.118 211.957 225.026 211.878 223.611L210.744 203.439C210.665 202.023 210.064 200.814 208.943 199.812C207.822 198.81 206.553 198.349 205.138 198.428C203.722 198.508 202.69 199.099 202.042 200.2C201.394 201.301 201.11 202.56 201.189 203.975L202.024 218.839L178.667 220.151L194.759 203.272C218.848 177.068 239.239 148.231 255.931 116.762C263.495 137.638 265.061 159.206 260.632 181.465C254.182 180.408 248.205 181.453 242.702 184.603C237.199 187.752 233.555 192.394 231.769 198.53C229.984 204.665 230.322 210.682 232.783 216.579C235.245 222.475 239.563 226.67 245.738 229.164C251.913 231.657 257.959 231.85 263.876 229.742C269.793 227.635 274.362 223.65 277.583 217.789C280.804 211.928 281.537 206.029 279.784 200.093C278.03 194.156 274.557 189.203 269.364 185.235C275.599 157.194 273.026 130.357 261.645 104.726C272.405 81.4006 277.328 61.5984 276.414 45.3193L276.354 44.2576C280.442 41.1879 283.241 37.303 284.752 32.6029C286.263 27.9029 286.358 23.2824 285.038 18.7414C283.718 14.2004 281.189 10.2598 277.451 6.91966C273.714 3.57953 269.338 1.51782 264.324 0.734481C259.309 -0.0488535 254.729 0.563483 250.581 2.57155C246.434 4.57959 243.064 7.78655 240.471 12.1923ZM20.6312 99.0954L19.5695 99.1551C19.331 94.9083 20.7247 91.2799 23.7507 88.2698C26.7767 85.2597 30.2361 83.6453 34.1289 83.4266C38.0218 83.2079 41.6402 84.4247 44.9844 87.0769C48.3285 89.7292 50.1198 93.1786 50.3584 97.4254C50.597 101.672 49.2033 105.301 46.1773 108.311C43.1513 111.321 39.6918 112.935 35.799 113.154C31.9062 113.373 28.4646 112.146 25.4744 109.474C22.4842 106.802 20.8698 103.342 20.6312 99.0954ZM194.747 89.3136L199.996 182.742C196.656 186.48 193.296 189.863 189.916 192.893L188.902 174.845C188.823 173.429 188.222 172.22 187.101 171.218C185.98 170.216 184.888 169.745 183.826 169.805C182.765 169.864 181.733 170.455 180.731 171.576C179.729 172.698 179.268 173.966 179.347 175.382L180.957 204.047L170.818 213.137L163.959 91.0433L165.02 90.9837C166.595 93.7353 168.671 95.9262 171.247 97.5565C173.824 99.1868 176.705 99.9125 179.89 99.7336C183.075 99.5547 185.856 98.5109 188.234 96.6022C190.612 94.6936 192.429 92.2839 193.686 89.3732L194.747 89.3136ZM124.676 93.2502L154.403 91.5801L161.68 221.106L131.953 222.776L124.676 93.2502ZM183.832 84.6016C183.912 86.0172 183.451 87.2856 182.449 88.407C181.447 89.5283 180.415 90.1188 179.353 90.1784C178.291 90.2381 177.2 89.7669 176.078 88.7649C174.957 87.7628 174.357 86.554 174.277 85.1384C174.198 83.7228 174.669 82.6313 175.691 81.8639C176.713 81.0965 177.755 80.6829 178.816 80.6233C179.878 80.5636 180.959 80.8579 182.061 81.506C183.162 82.1542 183.753 83.186 183.832 84.6016ZM11.0761 289.209C10.758 283.546 12.9967 279.16 17.7921 276.051C19.836 274.516 22.6274 273.649 26.1663 273.45C29.7053 273.251 32.9699 274.488 35.9601 277.16C38.9503 279.832 40.5448 282.938 40.7436 286.477C40.9424 290.016 40.3937 292.887 39.0974 295.09C37.1331 298.04 34.7751 300.303 32.0235 301.877C29.2719 303.452 26.0968 303.808 22.4982 302.945C18.8996 302.082 16.1459 300.462 14.2373 298.084C12.3287 295.706 11.2749 292.747 11.0761 289.209ZM50.6567 292.31C51.1259 288.024 50.7203 283.964 49.4399 280.131C48.1595 276.297 45.8373 272.878 42.4733 269.872C39.1093 266.865 35.4511 264.941 31.4986 264.098C27.5461 263.255 23.4664 263.307 19.2594 264.253C20.5477 249.27 24.3531 234.856 30.6755 221.01C44.887 246.483 65.4447 264.853 92.3486 276.122C79.2983 283.956 65.4009 289.352 50.6567 292.31ZM35.3875 210.095C47.563 186.69 61.5876 164.602 77.4612 143.829L78.1173 155.508C78.1968 156.923 78.7972 158.132 79.9185 159.134C81.0399 160.136 82.3083 160.598 83.7239 160.518C85.1395 160.439 86.1714 159.848 86.8195 158.747C87.4676 157.645 87.7519 156.387 87.6724 154.971L84.3323 95.5167L115.121 93.787L122.398 223.312L91.609 225.042L88.8057 175.143C88.7262 173.727 88.3027 172.509 87.5352 171.487C86.7678 170.465 85.6763 169.994 84.2607 170.073C82.8451 170.153 81.6363 170.753 80.6343 171.874C79.6322 172.996 79.171 174.264 79.2505 175.68L82.3521 230.887C82.4316 232.303 83.0221 233.335 84.1235 233.983C85.225 234.631 86.4835 234.915 87.8991 234.836L152.662 231.198C137.138 245.56 120.473 258.567 102.667 270.217C88.1536 264.643 75.1032 256.678 63.5161 246.324C51.9291 235.969 42.5528 223.893 35.3875 210.095ZM270.497 205.407C270.696 208.946 269.469 212.387 266.817 215.732C264.165 219.076 260.715 220.867 256.468 221.106C252.222 221.344 248.593 219.95 245.583 216.924C242.573 213.898 240.959 210.439 240.74 206.546C240.521 202.653 241.748 199.212 244.42 196.222C247.092 193.231 250.542 191.44 254.768 190.848C258.995 190.255 262.614 191.472 265.624 194.498C268.634 197.524 270.258 201.16 270.497 205.407ZM255.681 93.3456C241.469 67.8731 220.912 49.5024 194.008 38.2335C207.058 30.4001 220.956 25.0042 235.7 22.0457C235.231 26.3322 235.636 30.3921 236.917 34.2253C238.197 38.0585 240.519 41.4782 243.883 44.4843C247.247 47.4904 250.905 49.4149 254.858 50.2579C258.81 51.1009 262.89 51.0492 267.097 50.1028C265.809 65.0857 262.003 79.5 255.681 93.3456ZM275.28 25.1473C275.598 30.8096 273.36 35.1955 268.564 38.305C266.52 39.8399 263.729 40.7067 260.19 40.9055C256.651 41.1043 253.387 39.8677 250.396 37.1956C247.406 34.5235 245.812 31.418 245.613 27.879C245.414 24.3401 245.963 21.4692 247.259 19.2663C249.223 16.3158 251.581 14.0533 254.333 12.4786C257.085 10.904 260.26 10.5481 263.858 11.411C267.457 12.2739 270.211 13.8942 272.119 16.2721C274.028 18.6499 275.082 21.6083 275.28 25.1473ZM41.4116 32.9608C41.173 28.7141 39.5586 25.2547 36.5684 22.5826C33.5782 19.9105 29.9597 18.6937 25.713 18.9323C21.4662 19.1709 18.0068 20.7853 15.3347 23.7755C12.6626 26.7657 11.4458 30.3842 11.6844 34.6309C11.923 38.8777 13.5374 42.3371 16.5276 45.0092C19.5178 47.6813 23.1363 48.8981 27.383 48.6595C31.6298 48.4209 35.0892 46.8065 37.7613 43.8163C40.4334 40.8261 41.6502 37.2076 41.4116 32.9608ZM21.2396 34.0941C21.1601 32.6785 21.6213 31.4101 22.6234 30.2887C23.6254 29.1674 24.8342 28.5669 26.2498 28.4874C27.6654 28.4079 28.9338 28.8692 30.0551 29.8712C31.1765 30.8732 31.7769 32.0821 31.8564 33.4977C31.936 34.9132 31.4747 36.1817 30.4727 37.303C29.4706 38.4243 28.2618 39.0248 26.8462 39.1043C25.4307 39.1838 24.1622 38.7226 23.0409 37.7205C21.9195 36.7185 21.3191 35.5097 21.2396 34.0941ZM235.091 276.623C235.33 280.87 236.944 284.329 239.935 287.002C242.925 289.674 246.543 290.89 250.79 290.652C255.037 290.413 258.496 288.799 261.168 285.809C263.84 282.818 265.057 279.2 264.819 274.953C264.58 270.707 262.966 267.247 259.975 264.575C256.985 261.903 253.367 260.686 249.12 260.925C244.873 261.163 241.414 262.778 238.742 265.768C236.07 268.758 234.853 272.377 235.091 276.623ZM254.202 275.55C254.281 276.965 253.997 278.224 253.349 279.325C252.701 280.427 251.669 281.017 250.253 281.097C248.838 281.176 247.569 280.715 246.448 279.713C245.327 278.711 244.726 277.502 244.647 276.087C244.567 274.671 245.028 273.402 246.03 272.281C247.032 271.16 248.241 270.559 249.657 270.48C251.072 270.4 252.164 270.872 252.931 271.893C253.699 272.915 254.122 274.134 254.202 275.55Z" fill="#BEBEBE"/>
</svg>
